<svg width="96" height="96" xmlns="http://www.w3.org/2000/svg" xmlns:xlink="http://www.w3.org/1999/xlink" xml:space="preserve" overflow="hidden"><g transform="translate(-688 -119)"><path d="M705 130 711 130 711 204 705 204Z" fill="#4EA72E"/><path d="M762 130 715 130 715 204 762 204C764.2 204 766 202.2 766 200L766 134C766 131.8 764.2 130 762 130ZM732.1 158.1C732.1 153.9 735.5 150.5 739.7 150.5 743.9 150.5 747.3 153.9 747.3 158.1 747.3 162.3 743.9 165.7 739.7 165.7 735.5 165.7 732.1 162.4 732.1 158.1ZM755 183 724.4 183 724.4 175.4C724.4 174.2 725 173.1 725.9 172.3 728.2 170.7 730.7 169.4 733.4 168.7 735.5 168.1 737.6 167.8 739.7 167.7 741.8 167.7 744 168 746 168.7 748.7 169.4 751.2 170.6 753.5 172.3 754.4 173 755 174.2 755 175.4L755 183Z" fill="#4EA72E"/></g></svg>