<svg width="96" height="96" xmlns="http://www.w3.org/2000/svg" xmlns:xlink="http://www.w3.org/1999/xlink" xml:space="preserve" overflow="hidden"><g transform="translate(-813 -119)"><path d="M845 181C845 185.418 841.418 189 837 189 832.582 189 829 185.418 829 181 829 176.582 832.582 173 837 173 841.418 173 845 176.582 845 181Z" fill="#A02B93"/><path d="M893 181C893 185.418 889.418 189 885 189 880.582 189 877 185.418 877 181 877 176.582 880.582 173 885 173 889.418 173 893 176.582 893 181Z" fill="#A02B93"/><path d="M852 161 852 149 865.7 149C866.8 149 867.8 149.4 868.5 150.2L879.3 161 852 161ZM848 161 822.7 161 833.5 150.2C834.3 149.4 835.3 149 836.3 149L848 149 848 161ZM895 161 886.7 161C885.6 161 884.6 160.6 883.9 159.8L871.3 147.3C869.8 145.8 867.8 145 865.6 145L836.3 145C834.2 145 832.1 145.8 830.6 147.3L818.2 159.8C817.4 160.6 817 161.6 817 162.7L817 173C817 177.4 820.6 181 825 181L826 181C826 174.9 830.9 170 837 170 843.1 170 848 174.9 848 181L874 181C874 174.9 878.9 170 885 170 891.1 170 896 174.9 896 181L901 181C903.2 181 905 179.2 905 177L905 171C905 165.5 900.5 161 895 161Z" fill="#A02B93"/></g></svg>