<svg width="96" height="96" xmlns="http://www.w3.org/2000/svg" xmlns:xlink="http://www.w3.org/1999/xlink" xml:space="preserve" overflow="hidden"><g transform="translate(-669 -580)"><path d="M717 670C706.5 670 698 661.5 698 651L698 600C698 592.3 704.3 586 712 586 719.7 586 726 592.3 726 600L726 647C726 652 722 656 717 656 712 656 708 652 708 647L708 623 714 623 714 647C714 648.7 715.3 650 717 650 718.7 650 720 648.7 720 647L720 600C720 595.6 716.4 592 712 592 707.6 592 704 595.6 704 600L704 651C704 658.2 709.8 664 717 664 724.2 664 730 658.2 730 651L730 630 736 630 736 651C736 661.5 727.5 670 717 670Z"/></g></svg>