<svg width="96" height="96" xmlns="http://www.w3.org/2000/svg" xmlns:xlink="http://www.w3.org/1999/xlink" xml:space="preserve" overflow="hidden"><g transform="translate(-640 -382)"><path d="M694.764 437.3C695.89 438.394 695.916 440.194 694.822 441.32 694.803 441.34 694.784 441.359 694.764 441.378L689.882 442.986 689.021 442.125 690.629 437.243C691.795 436.138 693.629 436.163 694.764 437.3ZM716.824 407.831 688.624 436.094 685 447.007 695.97 443.388 724.176 415.188Z" fill="#A02B93"/><path d="M730.318 405.767 726.24 401.689C725.356 400.785 723.907 400.768 723.003 401.652 722.991 401.664 722.978 401.677 722.966 401.689L718.945 405.71 726.24 413 730.26 408.98C731.162 408.186 731.25 406.812 730.456 405.91 730.412 405.861 730.366 405.813 730.318 405.767Z" fill="#A02B93"/><path d="M666 447 681.842 447 683.168 443 666 443 666 447Z" fill="#A02B93"/><path d="M666 423 697.448 423 701.44 419 666 419 666 423Z" fill="#A02B93"/><path d="M710 433.6 710 464 660 464 660 402 671 402 671 408 699 408 699 402 710 402 710 410.422 714.7 405.71 714.7 405.71 714.871 405.539 716 404.41 716 400C716 397.791 714.209 396 712 396L695 396 695 394C695 391.791 693.209 390 691 390L679 390C676.791 390 675 391.791 675 394L675 396 658 396C655.791 396 654 397.791 654 400L654 466C654 468.209 655.791 470 658 470L712 470C714.209 470 716 468.209 716 466L716 427.6ZM682.864 394.864C683.429 394.298 684.2 393.986 685 394 686.657 394 688 395.343 688 397 688 398.657 686.657 400 685 400 683.343 400 682 398.657 682 397 681.986 396.2 682.298 395.429 682.864 394.864Z" fill="#A02B93"/><path d="M666 435 685.448 435 689.44 431 666 431 666 435Z" fill="#A02B93"/></g></svg>