<svg width="122" height="122" xmlns="http://www.w3.org/2000/svg" xmlns:xlink="http://www.w3.org/1999/xlink" xml:space="preserve" overflow="hidden"><defs><filter id="fx0" x="-10%" y="-10%" width="120%" height="120%" filterUnits="userSpaceOnUse" primitiveUnits="userSpaceOnUse"><feComponentTransfer color-interpolation-filters="sRGB"><feFuncR type="discrete" tableValues="0.14902 0.14902"/><feFuncG type="discrete" tableValues="0.14902 0.14902"/><feFuncB type="discrete" tableValues="0.14902 0.14902"/><feFuncA type="linear" slope="1" intercept="0"/></feComponentTransfer><feGaussianBlur stdDeviation="4.88889 4.88889"/></filter><clipPath id="clip1"><rect x="583" y="303" width="122" height="122"/></clipPath><clipPath id="clip2"><rect x="10" y="10" width="104" height="107"/></clipPath></defs><g clip-path="url(#clip1)" transform="translate(-583 -303)"><g clip-path="url(#clip2)" filter="url(#fx0)" transform="translate(582 302)"><g><g><g><g><path d="M76.9713 44.6712C76.9713 53.066 70.166 59.8712 61.7713 59.8712 53.3765 59.8712 46.5713 53.066 46.5713 44.6712 46.5713 36.2765 53.3765 29.4712 61.7713 29.4712 70.166 29.4712 76.9713 36.2765 76.9713 44.6712Z" fill="#595959"/><path d="M92.1713 94.0712 92.1713 78.8712C92.1713 76.5912 91.0313 74.3112 89.1313 72.7912 84.9513 69.3712 79.6313 67.0912 74.3113 65.5712 70.5113 64.4312 66.3313 63.6712 61.7713 63.6712 57.5913 63.6712 53.4113 64.4312 49.2313 65.5712 43.9113 67.0912 38.5913 69.7512 34.4113 72.7912 32.5113 74.3112 31.3713 76.5912 31.3713 78.8712L31.3713 94.0712 92.1713 94.0712Z" fill="#595959"/></g></g></g></g></g><g><g><g><path d="M656 342C656 350.837 648.837 358 640 358 631.163 358 624 350.837 624 342 624 333.163 631.163 326 640 326 648.837 326 656 333.163 656 342Z" fill="#595959"/><path d="M672 394 672 378C672 375.6 670.8 373.2 668.8 371.6 664.4 368 658.8 365.6 653.2 364 649.2 362.8 644.8 362 640 362 635.6 362 631.2 362.8 626.8 364 621.2 365.6 615.6 368.4 611.2 371.6 609.2 373.2 608 375.6 608 378L608 394 672 394Z" fill="#595959"/></g></g></g></g></svg>