<svg width="96" height="96" xmlns="http://www.w3.org/2000/svg" xmlns:xlink="http://www.w3.org/1999/xlink" xml:space="preserve" overflow="hidden"><g transform="translate(-460 -312)"><path d="M532 383.6 518.31 361.78C518.065 361.38 517.629 361.137 517.16 361.14 516.689 361.14 516.251 361.382 516 361.78L512 368.2 520.58 382.08C521.306 383.178 521.462 384.557 521 385.79L530.7 385.79C531.494 385.83 532.17 385.218 532.21 384.424 532.224 384.134 532.151 383.847 532 383.6Z" fill="#404040"/><path d="M517.1 383.73 495.35 348.34C495.071 347.979 494.636 347.775 494.18 347.79L494 347.79 493.82 347.79C493.364 347.775 492.929 347.979 492.65 348.34L470.9 383.73C470.592 384.161 470.549 384.728 470.79 385.2 471.033 385.628 471.513 385.862 472 385.79L516 385.79C516.487 385.862 516.967 385.628 517.21 385.2 517.451 384.728 517.408 384.161 517.1 383.73ZM497.64 364.92 494.18 368 490.72 364.92 485 368.38 494 353.79 502.76 368Z" fill="#404040"/><path d="M484 350C484 351.657 482.657 353 481 353 479.343 353 478 351.657 478 350 478 348.343 479.343 347 481 347 482.657 347 484 348.343 484 350Z" fill="#404040"/><path d="M553 325 473 325 473 336 462 336 462 397.79 542 397.79 542 386.79 553 386.79ZM536 392 468 392 468 341.79 536 341.79ZM547 381 542 381 542 336 479 336 479 331 547 331Z" fill="#404040"/></g></svg>