<svg width="96" height="96" xmlns="http://www.w3.org/2000/svg" xmlns:xlink="http://www.w3.org/1999/xlink" xml:space="preserve" overflow="hidden"><g transform="translate(-275 -151)"><path d="M325 181 321 181C318.8 181 317 179.2 317 177L317 169C317 166.8 318.8 165 321 165L325 165C327.2 165 329 166.8 329 169L329 177C329 179.2 327.2 181 325 181Z" fill="#1058B0"/><path d="M355 201 331 201 331 197 355 197 355 201ZM355 213 331 213 331 209 355 209 355 213ZM355 225 331 225 331 221 355 221 355 225ZM323 225 291 225 291 217C291 215.8 291.6 214.6 292.6 213.8 294.8 212.2 297.6 210.8 300.4 210 302.6 209.4 304.8 209 307 209 309.4 209 311.6 209.4 313.6 210 316.4 210.8 319.2 212 321.4 213.8 322.4 214.6 323 215.8 323 217L323 225ZM307 191C311.4 191 315 194.6 315 199 315 203.4 311.4 207 307 207 302.6 207 299 203.4 299 199 299 194.6 302.6 191 307 191ZM359 177 333 177C333 181.4 329.4 185 325 185L321 185C316.6 185 313 181.4 313 177L287 177C284.8 177 283 178.8 283 181L283 229C283 231.2 284.8 233 287 233L359 233C361.2 233 363 231.2 363 229L363 181C363 178.8 361.2 177 359 177Z" fill="#1058B0"/></g></svg>