<svg width="96" height="96" xmlns="http://www.w3.org/2000/svg" xmlns:xlink="http://www.w3.org/1999/xlink" xml:space="preserve" overflow="hidden"><g transform="translate(-702 -535)"><path d="M766 565C766 573.837 758.837 581 750 581 741.163 581 734 573.837 734 565 734 556.163 741.163 549 750 549 758.837 549 766 556.163 766 565Z" fill="#404040"/><path d="M782 617 782 601C782 598.6 780.8 596.2 778.8 594.6 774.4 591 768.8 588.6 763.2 587 759.2 585.8 754.8 585 750 585 745.6 585 741.2 585.8 736.8 587 731.2 588.6 725.6 591.4 721.2 594.6 719.2 596.2 718 598.6 718 601L718 617 782 617Z" fill="#404040"/></g></svg>