<svg width="96" height="96" xmlns="http://www.w3.org/2000/svg" xmlns:xlink="http://www.w3.org/1999/xlink" xml:space="preserve" overflow="hidden"><g transform="translate(-482 -562)"><path d="M532 595C532 596.105 531.105 597 530 597 528.895 597 528 596.105 528 595 528 593.895 528.895 593 530 593 531.105 593 532 593.895 532 595Z" fill="#404040"/><path d="M532 635C532 636.105 531.105 637 530 637 528.895 637 528 636.105 528 635 528 633.895 528.895 633 530 633 531.105 633 532 633.895 532 635Z" fill="#404040"/><path d="M552 614C552 615.105 551.105 616 550 616 548.895 616 548 615.105 548 614 548 612.895 548.895 612 550 612 551.105 612 552 612.895 552 614Z" fill="#404040"/><path d="M512 614C512 615.105 511.105 616 510 616 508.895 616 508 615.105 508 614 508 612.895 508.895 612 510 612 511.105 612 512 612.895 512 614Z" fill="#404040"/><path d="M532 600 528 600 528 614C528 614.5 528.2 615 528.6 615.4L538.5 625.3 541.3 622.5 532 613.2 532 600Z" fill="#404040"/><path d="M530 643C514.5 643 502 630.5 502 615 502 599.5 514.5 587 530 587 545.5 587 558 599.5 558 615 558 630.5 545.5 643 530 643L530 643ZM553.7 590.6 556.7 587.6C557.8 586.4 557.8 584.6 556.6 583.4 555.5 582.3 553.6 582.2 552.4 583.3L549 586.8C544.2 583.6 538.7 581.6 533 581.2L533 577 542 577 542 571 518 571 518 577 527 577 527 581.1C511.1 582.5 498.3 594.8 496.3 610.7 494.3 626.6 503.6 641.7 518.7 647 533.8 652.3 550.5 646.5 559 632.9 567.5 619.3 565.1 601.7 553.7 590.6L553.7 590.6Z" fill="#404040"/></g></svg>