<svg width="96" height="96" xmlns="http://www.w3.org/2000/svg" xmlns:xlink="http://www.w3.org/1999/xlink" xml:space="preserve" overflow="hidden"><g transform="translate(-784 -370)"><path d="M831.979 380C811.004 380 794 397.004 794 417.979 794 438.954 811.004 455.958 831.979 455.958 852.954 455.958 869.958 438.954 869.958 417.979 869.958 417.978 869.958 417.977 869.958 417.976 869.965 397.01 852.974 380.007 832.008 380 831.998 380 831.989 380 831.979 380ZM841.179 419.793C835.646 425.316 830.079 430.889 824.479 436.51 819.72 431.729 814.95 426.959 810.169 422.2L814.95 417.419 824.479 426.948C829.105 422.255 833.705 417.596 838.279 412.969 842.85 408.343 845.379 405.86 850.12 401.278 850.253 401.145 850.396 401.013 850.551 400.878 850.701 400.751 850.836 400.606 850.951 400.446L855.799 405.227C850.168 410.827 846.712 414.267 841.178 419.79Z" fill="#E97132"/></g></svg>